<svg xmlns="http://www.w3.org/2000/svg" style="display:none" fill="currentColor">
  <symbol viewBox="0 0 512 512" id="archive-closed">
    <path d="M32 32l448 0c17.7 0 32 14.3 32 32l0 32c0 17.7-14.3 32-32 32L32 128C14.3 128 0 113.7 0 96L0 64C0 46.3 14.3 32 32 32zm0 128l448 0 0 256c0 35.3-28.7 64-64 64L96 480c-35.3 0-64-28.7-64-64l0-256zm128 80c0 8.8 7.2 16 16 16l160 0c8.8 0 16-7.2 16-16s-7.2-16-16-16l-160 0c-8.8 0-16 7.2-16 16z"></path>
  </symbol>
  <symbol viewBox="0 0 512 512" id="chart">
    <path d="M64 64c0-17.7-14.3-32-32-32S0 46.3 0 64L0 400c0 44.2 35.8 80 80 80l400 0c17.7 0 32-14.3 32-32s-14.3-32-32-32L80 416c-8.8 0-16-7.2-16-16L64 64zm406.6 86.6c12.5-12.5 12.5-32.8 0-45.3s-32.8-12.5-45.3 0L320 210.7l-57.4-57.4c-12.5-12.5-32.8-12.5-45.3 0l-112 112c-12.5 12.5-12.5 32.8 0 45.3s32.8 12.5 45.3 0L240 221.3l57.4 57.4c12.5 12.5 32.8 12.5 45.3 0l128-128z"></path>
  </symbol>
  <symbol viewBox="0 0 448 512" id="arrow-left">
    <path d="M9.4 233.4c-12.5 12.5-12.5 32.8 0 45.3l160 160c12.5 12.5 32.8 12.5 45.3 0s12.5-32.8 0-45.3L109.2 288 416 288c17.7 0 32-14.3 32-32s-14.3-32-32-32l-306.7 0L214.6 118.6c12.5-12.5 12.5-32.8 0-45.3s-32.8-12.5-45.3 0l-160 160z"></path>
  </symbol>
  <symbol viewBox="0 0 512 512" id="chevron-down">
    <path d="M233.4 406.6c12.5 12.5 32.8 12.5 45.3 0l192-192c12.5-12.5 12.5-32.8 0-45.3s-32.8-12.5-45.3 0L256 338.7 86.6 169.4c-12.5-12.5-32.8-12.5-45.3 0s-12.5 32.8 0 45.3l192 192z"></path>
  </symbol>
  <symbol viewBox="0 0 512 512" id="chevron-up">
    <path d="M233.4 105.4c12.5-12.5 32.8-12.5 45.3 0l192 192c12.5 12.5 12.5 32.8 0 45.3s-32.8 12.5-45.3 0L256 173.3 86.6 342.6c-12.5 12.5-32.8 12.5-45.3 0s-12.5-32.8 0-45.3l192-192z"></path>
  </symbol>
  <symbol viewBox="0 0 512 512" id="check-circle-solid">
    <path d="M256 512A256 256 0 1 0 256 0a256 256 0 1 0 0 512zM369 209L241 337c-9.4 9.4-24.6 9.4-33.9 0l-64-64c-9.4-9.4-9.4-24.6 0-33.9s24.6-9.4 33.9 0l47 47L335 175c9.4-9.4 24.6-9.4 33.9 0s9.4 24.6 0 33.9z"></path>
  </symbol>
  <symbol viewBox="0 0 512 512" id="briefcase">
    <path d="M184 48l144 0c4.4 0 8 3.6 8 8l0 40L176 96l0-40c0-4.4 3.6-8 8-8zm-56 8l0 40L64 96C28.7 96 0 124.7 0 160l0 96 192 0 128 0 192 0 0-96c0-35.3-28.7-64-64-64l-64 0 0-40c0-30.9-25.1-56-56-56L184 0c-30.9 0-56 25.1-56 56zM512 288l-192 0 0 32c0 17.7-14.3 32-32 32l-64 0c-17.7 0-32-14.3-32-32l0-32L0 288 0 416c0 35.3 28.7 64 64 64l384 0c35.3 0 64-28.7 64-64l0-128z"></path>
  </symbol>
  <symbol viewBox="0 0 320 512" id="chevron-right">
    <path d="M310.6 233.4c12.5 12.5 12.5 32.8 0 45.3l-192 192c-12.5 12.5-32.8 12.5-45.3 0s-12.5-32.8 0-45.3L242.7 256 73.4 86.6c-12.5-12.5-12.5-32.8 0-45.3s32.8-12.5 45.3 0l192 192z"></path>
  </symbol>
  <symbol viewBox="0 0 448 512" id="check">
    <path d="M438.6 105.4c12.5 12.5 12.5 32.8 0 45.3l-256 256c-12.5 12.5-32.8 12.5-45.3 0l-128-128c-12.5-12.5-12.5-32.8 0-45.3s32.8-12.5 45.3 0L160 338.7 393.4 105.4c12.5-12.5 32.8-12.5 45.3 0z"></path>
  </symbol>
  <symbol viewBox="0 0 384 512" id="building">
    <path d="M48 0C21.5 0 0 21.5 0 48L0 464c0 26.5 21.5 48 48 48l96 0 0-80c0-26.5 21.5-48 48-48s48 21.5 48 48l0 80 96 0c26.5 0 48-21.5 48-48l0-416c0-26.5-21.5-48-48-48L48 0zM64 240c0-8.8 7.2-16 16-16l32 0c8.8 0 16 7.2 16 16l0 32c0 8.8-7.2 16-16 16l-32 0c-8.8 0-16-7.2-16-16l0-32zm112-16l32 0c8.8 0 16 7.2 16 16l0 32c0 8.8-7.2 16-16 16l-32 0c-8.8 0-16-7.2-16-16l0-32c0-8.8 7.2-16 16-16zm80 16c0-8.8 7.2-16 16-16l32 0c8.8 0 16 7.2 16 16l0 32c0 8.8-7.2 16-16 16l-32 0c-8.8 0-16-7.2-16-16l0-32zM80 96l32 0c8.8 0 16 7.2 16 16l0 32c0 8.8-7.2 16-16 16l-32 0c-8.8 0-16-7.2-16-16l0-32c0-8.8 7.2-16 16-16zm80 16c0-8.8 7.2-16 16-16l32 0c8.8 0 16 7.2 16 16l0 32c0 8.8-7.2 16-16 16l-32 0c-8.8 0-16-7.2-16-16l0-32zM272 96l32 0c8.8 0 16 7.2 16 16l0 32c0 8.8-7.2 16-16 16l-32 0c-8.8 0-16-7.2-16-16l0-32c0-8.8 7.2-16 16-16z"></path>
  </symbol>
  <symbol viewBox="0 0 512 512" id="enter">
    <path d="M217.9 105.9L340.7 228.7c7.2 7.2 11.3 17.1 11.3 27.3s-4.1 20.1-11.3 27.3L217.9 406.1c-6.4 6.4-15 9.9-24 9.9c-18.7 0-33.9-15.2-33.9-33.9l0-62.1L32 320c-17.7 0-32-14.3-32-32l0-64c0-17.7 14.3-32 32-32l128 0 0-62.1c0-18.7 15.2-33.9 33.9-33.9c9 0 17.6 3.6 24 9.9zM352 416l64 0c17.7 0 32-14.3 32-32l0-256c0-17.7-14.3-32-32-32l-64 0c-17.7 0-32-14.3-32-32s14.3-32 32-32l64 0c53 0 96 43 96 96l0 256c0 53-43 96-96 96l-64 0c-17.7 0-32-14.3-32-32s14.3-32 32-32z"></path>
  </symbol>
  <symbol viewBox="0 0 512 512" id="edit-pencil-square-solid">
    <path d="M471.6 21.7c-21.9-21.9-57.3-21.9-79.2 0L362.3 51.7l97.9 97.9 30.1-30.1c21.9-21.9 21.9-57.3 0-79.2L471.6 21.7zm-299.2 220c-6.1 6.1-10.8 13.6-13.5 21.9l-29.6 88.8c-2.9 8.6-.6 18.1 5.8 24.6s15.9 8.7 24.6 5.8l88.8-29.6c8.2-2.7 15.7-7.4 21.9-13.5L437.7 172.3 339.7 74.3 172.4 241.7zM96 64C43 64 0 107 0 160L0 416c0 53 43 96 96 96l256 0c53 0 96-43 96-96l0-96c0-17.7-14.3-32-32-32s-32 14.3-32 32l0 96c0 17.7-14.3 32-32 32L96 448c-17.7 0-32-14.3-32-32l0-256c0-17.7 14.3-32 32-32l96 0c17.7 0 32-14.3 32-32s-14.3-32-32-32L96 64z"></path>
  </symbol>
  <symbol viewBox="0 0 512 512" id="edit-pencil">
    <path d="M410.3 231l11.3-11.3-33.9-33.9-62.1-62.1L291.7 89.8l-11.3 11.3-22.6 22.6L58.6 322.9c-10.4 10.4-18 23.3-22.2 37.4L1 480.7c-2.5 8.4-.2 17.5 6.1 23.7s15.3 8.5 23.7 6.1l120.3-35.4c14.1-4.2 27-11.8 37.4-22.2L387.7 253.7 410.3 231zM160 399.4l-9.1 22.7c-4 3.1-8.5 5.4-13.3 6.9L59.4 452l23-78.1c1.4-4.9 3.8-9.4 6.9-13.3l22.7-9.1 0 32c0 8.8 7.2 16 16 16l32 0zM362.7 18.7L348.3 33.2 325.7 55.8 314.3 67.1l33.9 33.9 62.1 62.1 33.9 33.9 11.3-11.3 22.6-22.6 14.5-14.5c25-25 25-65.5 0-90.5L453.3 18.7c-25-25-65.5-25-90.5 0zm-47.4 168l-144 144c-6.2 6.2-16.4 6.2-22.6 0s-6.2-16.4 0-22.6l144-144c6.2-6.2 16.4-6.2 22.6 0s6.2 16.4 0 22.6z"></path>
  </symbol>
  <symbol viewBox="0 0 640 512" id="archive-open">
    <path d="M58.9 42.1c3-6.1 9.6-9.6 16.3-8.7L320 64 564.8 33.4c6.7-.8 13.3 2.7 16.3 8.7l41.7 83.4c9 17.9-.6 39.6-19.8 45.1L439.6 217.3c-13.9 4-28.8-1.9-36.2-14.3L320 64 236.6 203c-7.4 12.4-22.3 18.3-36.2 14.3L37.1 170.6c-19.3-5.5-28.8-27.2-19.8-45.1L58.9 42.1zM321.1 128l54.9 91.4c14.9 24.8 44.6 36.6 72.5 28.6L576 211.6l0 167c0 22-15 41.2-36.4 46.6l-204.1 51c-10.2 2.6-20.9 2.6-31 0l-204.1-51C79 419.7 64 400.5 64 378.5l0-167L191.6 248c27.8 8 57.6-3.8 72.5-28.6L318.9 128l2.2 0z"></path>
  </symbol>
  <symbol viewBox="0 0 512 512" id="comment-dots">
    <path d="M256 448c141.4 0 256-93.1 256-208S397.4 32 256 32S0 125.1 0 240c0 45.1 17.7 86.8 47.7 120.9c-1.9 24.5-11.4 46.3-21.4 62.9c-5.5 9.2-11.1 16.6-15.2 21.6c-2.1 2.5-3.7 4.4-4.9 5.7c-.6 .6-1 1.1-1.3 1.4l-.3 .3c0 0 0 0 0 0c0 0 0 0 0 0s0 0 0 0s0 0 0 0c-4.6 4.6-5.9 11.4-3.4 17.4c2.5 6 8.3 9.9 14.8 9.9c28.7 0 57.6-8.9 81.6-19.3c22.9-10 42.4-21.9 54.3-30.6c31.8 11.5 67 17.9 104.1 17.9zM128 208a32 32 0 1 1 0 64 32 32 0 1 1 0-64zm128 0a32 32 0 1 1 0 64 32 32 0 1 1 0-64zm96 32a32 32 0 1 1 64 0 32 32 0 1 1 -64 0z"></path>
  </symbol>
  <symbol viewBox="0 0 512 512" id="edit-pencil-square">
    <path d="M441 58.9L453.1 71c9.4 9.4 9.4 24.6 0 33.9L424 134.1 377.9 88 407 58.9c9.4-9.4 24.6-9.4 33.9 0zM209.8 256.2L344 121.9 390.1 168 255.8 302.2c-2.9 2.9-6.5 5-10.4 6.1l-58.5 16.7 16.7-58.5c1.1-3.9 3.2-7.5 6.1-10.4zM373.1 25L175.8 222.2c-8.7 8.7-15 19.4-18.3 31.1l-28.6 100c-2.4 8.4-.1 17.4 6.1 23.6s15.2 8.5 23.6 6.1l100-28.6c11.8-3.4 22.5-9.7 31.1-18.3L487 138.9c28.1-28.1 28.1-73.7 0-101.8L474.9 25C446.8-3.1 401.2-3.1 373.1 25zM88 64C39.4 64 0 103.4 0 152L0 424c0 48.6 39.4 88 88 88l272 0c48.6 0 88-39.4 88-88l0-112c0-13.3-10.7-24-24-24s-24 10.7-24 24l0 112c0 22.1-17.9 40-40 40L88 464c-22.1 0-40-17.9-40-40l0-272c0-22.1 17.9-40 40-40l112 0c13.3 0 24-10.7 24-24s-10.7-24-24-24L88 64z"></path>
  </symbol>
  <symbol viewBox="0 0 512 512" id="exit">
    <path d="M377.9 105.9L500.7 228.7c7.2 7.2 11.3 17.1 11.3 27.3s-4.1 20.1-11.3 27.3L377.9 406.1c-6.4 6.4-15 9.9-24 9.9c-18.7 0-33.9-15.2-33.9-33.9l0-62.1-128 0c-17.7 0-32-14.3-32-32l0-64c0-17.7 14.3-32 32-32l128 0 0-62.1c0-18.7 15.2-33.9 33.9-33.9c9 0 17.6 3.6 24 9.9zM160 96L96 96c-17.7 0-32 14.3-32 32l0 256c0 17.7 14.3 32 32 32l64 0c17.7 0 32 14.3 32 32s-14.3 32-32 32l-64 0c-53 0-96-43-96-96L0 128C0 75 43 32 96 32l64 0c17.7 0 32 14.3 32 32s-14.3 32-32 32z"></path>
  </symbol>
  <symbol viewBox="0 0 384 512" id="bookmark">
    <path d="M0 48C0 21.5 21.5 0 48 0l0 48 0 393.4 130.1-92.9c8.3-6 19.6-6 27.9 0L336 441.4 336 48 48 48 48 0 336 0c26.5 0 48 21.5 48 48l0 440c0 9-5 17.2-13 21.3s-17.6 3.4-24.9-1.8L192 397.5 37.9 507.5c-7.3 5.2-16.9 5.9-24.9 1.8S0 497 0 488L0 48z"></path>
  </symbol>
  <symbol viewBox="0 0 512 512" id="camera">
    <path d="M149.1 64.8L138.7 96 64 96C28.7 96 0 124.7 0 160L0 416c0 35.3 28.7 64 64 64l384 0c35.3 0 64-28.7 64-64l0-256c0-35.3-28.7-64-64-64l-74.7 0L362.9 64.8C356.4 45.2 338.1 32 317.4 32L194.6 32c-20.7 0-39 13.2-45.5 32.8zM256 192a96 96 0 1 1 0 192 96 96 0 1 1 0-192z"></path>
  </symbol>
  <symbol viewBox="0 0 24 24" id="eye-open">
    <path stroke-linecap="round" stroke-linejoin="round" stroke-width="2" d="M15 12a3 3 0 1 1-6 0 3 3 0 0 1 6 0"></path>
    <path stroke-linecap="round" stroke-linejoin="round" stroke-width="2" d="M2.458 12C3.732 7.943 7.523 5 12 5s8.268 2.943 9.542 7c-1.274 4.057-5.065 7-9.542 7s-8.268-2.943-9.542-7"></path>
  </symbol>
  <symbol viewBox="0 0 320 512" id="chevron-left">
    <path d="M9.4 233.4c-12.5 12.5-12.5 32.8 0 45.3l192 192c12.5 12.5 32.8 12.5 45.3 0s12.5-32.8 0-45.3L77.3 256 246.6 86.6c12.5-12.5 12.5-32.8 0-45.3s-32.8-12.5-45.3 0l-192 192z"></path>
  </symbol>
  <symbol viewBox="0 0 24 24" id="eye-closed">
    <path stroke-linecap="round" stroke-linejoin="round" stroke-width="2" d="m9.75 14.25 4.5-4.5m-4.5 0 4.5 4.5M2.458 12C3.732 7.943 7.523 5 12 5s8.268 2.943 9.542 7c-1.274 4.057-5.065 7-9.542 7s-8.268-2.943-9.542-7"></path>
  </symbol>
  <symbol viewBox="0 0 128 512" id="ellipsis-vertical">
    <path d="M64 360a56 56 0 1 0 0 112 56 56 0 1 0 0-112zm0-160a56 56 0 1 0 0 112 56 56 0 1 0 0-112zM120 96A56 56 0 1 0 8 96a56 56 0 1 0 112 0z"></path>
  </symbol>
  <symbol viewBox="0 0 512 512" id="exit-light">
    <path d="M502.6 278.6c12.5-12.5 12.5-32.8 0-45.3l-128-128c-12.5-12.5-32.8-12.5-45.3 0s-12.5 32.8 0 45.3L402.7 224 192 224c-17.7 0-32 14.3-32 32s14.3 32 32 32l210.7 0-73.4 73.4c-12.5 12.5-12.5 32.8 0 45.3s32.8 12.5 45.3 0l128-128zM160 96c17.7 0 32-14.3 32-32s-14.3-32-32-32L96 32C43 32 0 75 0 128L0 384c0 53 43 96 96 96l64 0c17.7 0 32-14.3 32-32s-14.3-32-32-32l-64 0c-17.7 0-32-14.3-32-32l0-256c0-17.7 14.3-32 32-32l64 0z"></path>
  </symbol>
  <symbol viewBox="0 0 512 512" id="check-circle">
    <path d="M256 48a208 208 0 1 1 0 416 208 208 0 1 1 0-416zm0 464A256 256 0 1 0 256 0a256 256 0 1 0 0 512zM369 209c9.4-9.4 9.4-24.6 0-33.9s-24.6-9.4-33.9 0l-111 111-47-47c-9.4-9.4-24.6-9.4-33.9 0s-9.4 24.6 0 33.9l64 64c9.4 9.4 24.6 9.4 33.9 0L369 209z"></path>
  </symbol>
  <symbol viewBox="0 0 384 512" id="hourglass-half">
    <path d="M32 0C14.3 0 0 14.3 0 32S14.3 64 32 64l0 11c0 42.4 16.9 83.1 46.9 113.1L146.7 256 78.9 323.9C48.9 353.9 32 394.6 32 437l0 11c-17.7 0-32 14.3-32 32s14.3 32 32 32l32 0 256 0 32 0c17.7 0 32-14.3 32-32s-14.3-32-32-32l0-11c0-42.4-16.9-83.1-46.9-113.1L237.3 256l67.9-67.9c30-30 46.9-70.7 46.9-113.1l0-11c17.7 0 32-14.3 32-32s-14.3-32-32-32L320 0 64 0 32 0zM96 75l0-11 192 0 0 11c0 19-5.6 37.4-16 53L112 128c-10.3-15.6-16-34-16-53zm16 309c3.5-5.3 7.6-10.3 12.1-14.9L192 301.3l67.9 67.9c4.6 4.6 8.6 9.6 12.1 14.9L112 384z"></path>
  </symbol>
  <symbol viewBox="0 0 512 512" id="gear">
    <path d="M495.9 166.6c3.2 8.7 .5 18.4-6.4 24.6l-43.3 39.4c1.1 8.3 1.7 16.8 1.7 25.4s-.6 17.1-1.7 25.4l43.3 39.4c6.9 6.2 9.6 15.9 6.4 24.6c-4.4 11.9-9.7 23.3-15.8 34.3l-4.7 8.1c-6.6 11-14 21.4-22.1 31.2c-5.9 7.2-15.7 9.6-24.5 6.8l-55.7-17.7c-13.4 10.3-28.2 18.9-44 25.4l-12.5 57.1c-2 9.1-9 16.3-18.2 17.8c-13.8 2.3-28 3.5-42.5 3.5s-28.7-1.2-42.5-3.5c-9.2-1.5-16.2-8.7-18.2-17.8l-12.5-57.1c-15.8-6.5-30.6-15.1-44-25.4L83.1 425.9c-8.8 2.8-18.6 .3-24.5-6.8c-8.1-9.8-15.5-20.2-22.1-31.2l-4.7-8.1c-6.1-11-11.4-22.4-15.8-34.3c-3.2-8.7-.5-18.4 6.4-24.6l43.3-39.4C64.6 273.1 64 264.6 64 256s.6-17.1 1.7-25.4L22.4 191.2c-6.9-6.2-9.6-15.9-6.4-24.6c4.4-11.9 9.7-23.3 15.8-34.3l4.7-8.1c6.6-11 14-21.4 22.1-31.2c5.9-7.2 15.7-9.6 24.5-6.8l55.7 17.7c13.4-10.3 28.2-18.9 44-25.4l12.5-57.1c2-9.1 9-16.3 18.2-17.8C227.3 1.2 241.5 0 256 0s28.7 1.2 42.5 3.5c9.2 1.5 16.2 8.7 18.2 17.8l12.5 57.1c15.8 6.5 30.6 15.1 44 25.4l55.7-17.7c8.8-2.8 18.6-.3 24.5 6.8c8.1 9.8 15.5 20.2 22.1 31.2l4.7 8.1c6.1 11 11.4 22.4 15.8 34.3zM256 336a80 80 0 1 0 0-160 80 80 0 1 0 0 160z"></path>
  </symbol>
  <symbol viewBox="0 0 512 512" id="clock">
    <path d="M256 0a256 256 0 1 1 0 512A256 256 0 1 1 256 0zM232 120l0 136c0 8 4 15.5 10.7 20l96 64c11 7.4 25.9 4.4 33.3-6.7s4.4-25.9-6.7-33.3L280 243.2 280 120c0-13.3-10.7-24-24-24s-24 10.7-24 24z"></path>
  </symbol>
  <symbol viewBox="0 0 384 512" id="location">
    <path d="M215.7 499.2C267 435 384 279.4 384 192C384 86 298 0 192 0S0 86 0 192c0 87.4 117 243 168.3 307.2c12.3 15.3 35.1 15.3 47.4 0zM192 128a64 64 0 1 1 0 128 64 64 0 1 1 0-128z"></path>
  </symbol>
  <symbol viewBox="0 0 24 24" id="menu">
    <path stroke-linecap="round" stroke-linejoin="round" stroke-width="2" d="M4 8h16M4 16h16"></path>
  </symbol>
  <symbol viewBox="0 0 512 512" id="search" fill="currentColor">
    <path d="M416 208c0 45.9-14.9 88.3-40 122.7l126.6 126.7c12.5 12.5 12.5 32.8 0 45.3s-32.8 12.5-45.3 0L330.7 376c-34.4 25.2-76.8 40-122.7 40C93.1 416 0 322.9 0 208S93.1 0 208 0s208 93.1 208 208M208 352a144 144 0 1 0 0-288 144 144 0 1 0 0 288"></path>
  </symbol>
  <symbol viewBox="0 0 512 512" id="key">
    <path d="M336 352c97.2 0 176-78.8 176-176S433.2 0 336 0S160 78.8 160 176c0 18.7 2.9 36.8 8.3 53.7L7 391c-4.5 4.5-7 10.6-7 17l0 80c0 13.3 10.7 24 24 24l80 0c13.3 0 24-10.7 24-24l0-40 40 0c13.3 0 24-10.7 24-24l0-40 40 0c6.4 0 12.5-2.5 17-7l33.3-33.3c16.9 5.4 35 8.3 53.7 8.3zM376 96a40 40 0 1 1 0 80 40 40 0 1 1 0-80z"></path>
  </symbol>
  <symbol viewBox="0 0 512 512" id="rotate">
    <path d="M142.9 142.9c-17.5 17.5-30.1 38-37.8 59.8c-5.9 16.7-24.2 25.4-40.8 19.5s-25.4-24.2-19.5-40.8C55.6 150.7 73.2 122 97.6 97.6c87.2-87.2 228.3-87.5 315.8-1L455 55c6.9-6.9 17.2-8.9 26.2-5.2s14.8 12.5 14.8 22.2l0 128c0 13.3-10.7 24-24 24l-8.4 0c0 0 0 0 0 0L344 224c-9.7 0-18.5-5.8-22.2-14.8s-1.7-19.3 5.2-26.2l41.1-41.1c-62.6-61.5-163.1-61.2-225.3 1zM16 312c0-13.3 10.7-24 24-24l7.6 0 .7 0L168 288c9.7 0 18.5 5.8 22.2 14.8s1.7 19.3-5.2 26.2l-41.1 41.1c62.6 61.5 163.1 61.2 225.3-1c17.5-17.5 30.1-38 37.8-59.8c5.9-16.7 24.2-25.4 40.8-19.5s25.4 24.2 19.5 40.8c-10.8 30.6-28.4 59.3-52.9 83.8c-87.2 87.2-228.3 87.5-315.8 1L57 457c-6.9 6.9-17.2 8.9-26.2 5.2S16 449.7 16 440l0-119.6 0-.7 0-7.6z"></path>
  </symbol>
  <symbol viewBox="0 0 384 512" id="percent">
    <path d="M374.6 118.6c12.5-12.5 12.5-32.8 0-45.3s-32.8-12.5-45.3 0l-320 320c-12.5 12.5-12.5 32.8 0 45.3s32.8 12.5 45.3 0l320-320zM128 128A64 64 0 1 0 0 128a64 64 0 1 0 128 0zM384 384a64 64 0 1 0 -128 0 64 64 0 1 0 128 0z"></path>
  </symbol>
  <symbol viewBox="0 0 512 512" id="comment">
    <path d="M512 240c0 114.9-114.6 208-256 208c-37.1 0-72.3-6.4-104.1-17.9c-11.9 8.7-31.3 20.6-54.3 30.6C73.6 471.1 44.7 480 16 480c-6.5 0-12.3-3.9-14.8-9.9c-2.5-6-1.1-12.8 3.4-17.4c0 0 0 0 0 0s0 0 0 0s0 0 0 0c0 0 0 0 0 0l.3-.3c.3-.3 .7-.7 1.3-1.4c1.1-1.2 2.8-3.1 4.9-5.7c4.1-5 9.6-12.4 15.2-21.6c10-16.6 19.5-38.4 21.4-62.9C17.7 326.8 0 285.1 0 240C0 125.1 114.6 32 256 32s256 93.1 256 208z"></path>
  </symbol>
  <symbol viewBox="0 0 512 512" id="info-circle">
    <path d="M256 512A256 256 0 1 0 256 0a256 256 0 1 0 0 512zM216 336l24 0 0-64-24 0c-13.3 0-24-10.7-24-24s10.7-24 24-24l48 0c13.3 0 24 10.7 24 24l0 88 8 0c13.3 0 24 10.7 24 24s-10.7 24-24 24l-80 0c-13.3 0-24-10.7-24-24s10.7-24 24-24zm40-208a32 32 0 1 1 0 64 32 32 0 1 1 0-64z"></path>
  </symbol>
  <symbol viewBox="0 0 320 512" id="sort">
    <path d="M137.4 41.4c12.5-12.5 32.8-12.5 45.3 0l128 128c9.2 9.2 11.9 22.9 6.9 34.9s-16.6 19.8-29.6 19.8L32 224c-12.9 0-24.6-7.8-29.6-19.8s-2.2-25.7 6.9-34.9l128-128zm0 429.3l-128-128c-9.2-9.2-11.9-22.9-6.9-34.9s16.6-19.8 29.6-19.8l256 0c12.9 0 24.6 7.8 29.6 19.8s2.2 25.7-6.9 34.9l-128 128c-12.5 12.5-32.8 12.5-45.3 0z"></path>
  </symbol>
  <symbol viewBox="0 0 512 512" id="suitcase">
    <path d="M176 56l0 40 160 0 0-40c0-4.4-3.6-8-8-8L184 48c-4.4 0-8 3.6-8 8zM128 96l0-40c0-30.9 25.1-56 56-56L328 0c30.9 0 56 25.1 56 56l0 40 0 32 0 352-256 0 0-352 0-32zM64 96l32 0 0 384-32 0c-35.3 0-64-28.7-64-64L0 160c0-35.3 28.7-64 64-64zM448 480l-32 0 0-384 32 0c35.3 0 64 28.7 64 64l0 256c0 35.3-28.7 64-64 64z"></path>
  </symbol>
  <symbol viewBox="0 0 320 512" id="sort-down">
    <path d="M182.6 470.6c-12.5 12.5-32.8 12.5-45.3 0l-128-128c-9.2-9.2-11.9-22.9-6.9-34.9s16.6-19.8 29.6-19.8l256 0c12.9 0 24.6 7.8 29.6 19.8s2.2 25.7-6.9 34.9l-128 128z"></path>
  </symbol>
  <symbol viewBox="0 0 512 512" id="share">
    <path d="M307 34.8c-11.5 5.1-19 16.6-19 29.2l0 64-112 0C78.8 128 0 206.8 0 304C0 417.3 81.5 467.9 100.2 478.1c2.5 1.4 5.3 1.9 8.1 1.9c10.9 0 19.7-8.9 19.7-19.7c0-7.5-4.3-14.4-9.8-19.5C108.8 431.9 96 414.4 96 384c0-53 43-96 96-96l96 0 0 64c0 12.6 7.4 24.1 19 29.2s25 3 34.4-5.4l160-144c6.7-6.1 10.6-14.7 10.6-23.8s-3.8-17.7-10.6-23.8l-160-144c-9.4-8.5-22.9-10.6-34.4-5.4z"></path>
  </symbol>
  <symbol viewBox="0 0 320 512" id="sort-up">
    <path d="M182.6 41.4c-12.5-12.5-32.8-12.5-45.3 0l-128 128c-9.2 9.2-11.9 22.9-6.9 34.9s16.6 19.8 29.6 19.8l256 0c12.9 0 24.6-7.8 29.6-19.8s2.2-25.7-6.9-34.9l-128-128z"></path>
  </symbol>
  <symbol viewBox="0 0 512 512" id="rotate-right">
    <path d="M463.5 224l8.5 0c13.3 0 24-10.7 24-24l0-128c0-9.7-5.8-18.5-14.8-22.2s-19.3-1.7-26.2 5.2L413.4 96.6c-87.6-86.5-228.7-86.2-315.8 1c-87.5 87.5-87.5 229.3 0 316.8s229.3 87.5 316.8 0c12.5-12.5 12.5-32.8 0-45.3s-32.8-12.5-45.3 0c-62.5 62.5-163.8 62.5-226.3 0s-62.5-163.8 0-226.3c62.2-62.2 162.7-62.5 225.3-1L327 183c-6.9 6.9-8.9 17.2-5.2 26.2s12.5 14.8 22.2 14.8l119.5 0z"></path>
  </symbol>
  <symbol viewBox="0 0 448 512" id="plus">
    <path d="M256 80c0-17.7-14.3-32-32-32s-32 14.3-32 32l0 144L48 224c-17.7 0-32 14.3-32 32s14.3 32 32 32l144 0 0 144c0 17.7 14.3 32 32 32s32-14.3 32-32l0-144 144 0c17.7 0 32-14.3 32-32s-14.3-32-32-32l-144 0 0-144z"></path>
  </symbol>
  <symbol viewBox="0 0 512 512" id="paper-plane">
    <path d="M16.1 260.2c-22.6 12.9-20.5 47.3 3.6 57.3L160 376l0 103.3c0 18.1 14.6 32.7 32.7 32.7c9.7 0 18.9-4.3 25.1-11.8l62-74.3 123.9 51.6c18.9 7.9 40.8-4.5 43.9-24.7l64-416c1.9-12.1-3.4-24.3-13.5-31.2s-23.3-7.5-34-1.4l-448 256zm52.1 25.5L409.7 90.6 190.1 336l1.2 1L68.2 285.7zM403.3 425.4L236.7 355.9 450.8 116.6 403.3 425.4z"></path>
  </symbol>
  <symbol viewBox="0 0 640 512" id="graduation-cap">
    <path d="M320 32c-8.1 0-16.1 1.4-23.7 4.1L15.8 137.4C6.3 140.9 0 149.9 0 160s6.3 19.1 15.8 22.6l57.9 20.9C57.3 229.3 48 259.8 48 291.9l0 28.1c0 28.4-10.8 57.7-22.3 80.8c-6.5 13-13.9 25.8-22.5 37.6C0 442.7-.9 448.3 .9 453.4s6 8.9 11.2 10.2l64 16c4.2 1.1 8.7 .3 12.4-2s6.3-6.1 7.1-10.4c8.6-42.8 4.3-81.2-2.1-108.7C90.3 344.3 86 329.8 80 316.5l0-24.6c0-30.2 10.2-58.7 27.9-81.5c12.9-15.5 29.6-28 49.2-35.7l157-61.7c8.2-3.2 17.5 .8 20.7 9s-.8 17.5-9 20.7l-157 61.7c-12.4 4.9-23.3 12.4-32.2 21.6l159.6 57.6c7.6 2.7 15.6 4.1 23.7 4.1s16.1-1.4 23.7-4.1L624.2 182.6c9.5-3.4 15.8-12.5 15.8-22.6s-6.3-19.1-15.8-22.6L343.7 36.1C336.1 33.4 328.1 32 320 32zM128 408c0 35.3 86 72 192 72s192-36.7 192-72L496.7 262.6 354.5 314c-11.1 4-22.8 6-34.5 6s-23.5-2-34.5-6L143.3 262.6 128 408z"></path>
  </symbol>
  <symbol viewBox="0 0 512 512" id="university">
    <path d="M243.4 2.6l-224 96c-14 6-21.8 21-18.7 35.8S16.8 160 32 160l0 8c0 13.3 10.7 24 24 24l400 0c13.3 0 24-10.7 24-24l0-8c15.2 0 28.3-10.7 31.3-25.6s-4.8-29.9-18.7-35.8l-224-96c-8-3.4-17.2-3.4-25.2 0zM128 224l-64 0 0 196.3c-.6 .3-1.2 .7-1.8 1.1l-48 32c-11.7 7.8-17 22.4-12.9 35.9S17.9 512 32 512l448 0c14.1 0 26.5-9.2 30.6-22.7s-1.1-28.1-12.9-35.9l-48-32c-.6-.4-1.2-.7-1.8-1.1L448 224l-64 0 0 192-40 0 0-192-64 0 0 192-48 0 0-192-64 0 0 192-40 0 0-192zM256 64a32 32 0 1 1 0 64 32 32 0 1 1 0-64z"></path>
  </symbol>
  <symbol viewBox="0 0 512 512" id="rotate-left">
    <path d="M48.5 224L40 224c-13.3 0-24-10.7-24-24L16 72c0-9.7 5.8-18.5 14.8-22.2s19.3-1.7 26.2 5.2L98.6 96.6c87.6-86.5 228.7-86.2 315.8 1c87.5 87.5 87.5 229.3 0 316.8s-229.3 87.5-316.8 0c-12.5-12.5-12.5-32.8 0-45.3s32.8-12.5 45.3 0c62.5 62.5 163.8 62.5 226.3 0s62.5-163.8 0-226.3c-62.2-62.2-162.7-62.5-225.3-1L185 183c6.9 6.9 8.9 17.2 5.2 26.2s-12.5 14.8-22.2 14.8L48.5 224z"></path>
  </symbol>
  <symbol viewBox="0 0 576 512" id="share-square">
    <path d="M352 224l-46.5 0c-45 0-81.5 36.5-81.5 81.5c0 22.3 10.3 34.3 19.2 40.5c6.8 4.7 12.8 12 12.8 20.3c0 9.8-8 17.8-17.8 17.8l-2.5 0c-2.4 0-4.8-.4-7.1-1.4C210.8 374.8 128 333.4 128 240c0-79.5 64.5-144 144-144l80 0 0-61.3C352 15.5 367.5 0 386.7 0c8.6 0 16.8 3.2 23.2 8.9L548.1 133.3c7.6 6.8 11.9 16.5 11.9 26.7s-4.3 19.9-11.9 26.7l-139 125.1c-5.9 5.3-13.5 8.2-21.4 8.2l-3.7 0c-17.7 0-32-14.3-32-32l0-64zM80 96c-8.8 0-16 7.2-16 16l0 320c0 8.8 7.2 16 16 16l320 0c8.8 0 16-7.2 16-16l0-48c0-17.7 14.3-32 32-32s32 14.3 32 32l0 48c0 44.2-35.8 80-80 80L80 512c-44.2 0-80-35.8-80-80L0 112C0 67.8 35.8 32 80 32l48 0c17.7 0 32 14.3 32 32s-14.3 32-32 32L80 96z"></path>
  </symbol>
  <symbol viewBox="0 0 448 512" id="trash">
    <path d="M135.2 17.7L128 32 32 32C14.3 32 0 46.3 0 64S14.3 96 32 96l384 0c17.7 0 32-14.3 32-32s-14.3-32-32-32l-96 0-7.2-14.3C307.4 6.8 296.3 0 284.2 0L163.8 0c-12.1 0-23.2 6.8-28.6 17.7zM416 128L32 128 53.2 467c1.6 25.3 22.6 45 47.9 45l245.8 0c25.3 0 46.3-19.7 47.9-45L416 128z"></path>
  </symbol>
  <symbol viewBox="0 0 512 512" id="user-circle">
    <path d="M399 384.2C376.9 345.8 335.4 320 288 320l-64 0c-47.4 0-88.9 25.8-111 64.2c35.2 39.2 86.2 63.8 143 63.8s107.8-24.7 143-63.8zM0 256a256 256 0 1 1 512 0A256 256 0 1 1 0 256zm256 16a72 72 0 1 0 0-144 72 72 0 1 0 0 144z"></path>
  </symbol>
  <symbol viewBox="0 0 512 512" id="warning-triangle">
    <path d="M256 32c14.2 0 27.3 7.5 34.5 19.8l216 368c7.3 12.4 7.3 27.7 .2 40.1S486.3 480 472 480L40 480c-14.3 0-27.6-7.7-34.7-20.1s-7-27.8 .2-40.1l216-368C228.7 39.5 241.8 32 256 32zm0 128c-13.3 0-24 10.7-24 24l0 112c0 13.3 10.7 24 24 24s24-10.7 24-24l0-112c0-13.3-10.7-24-24-24zm32 224a32 32 0 1 0 -64 0 32 32 0 1 0 64 0z"></path>
  </symbol>
  <symbol viewBox="0 0 640 512" id="users">
    <path d="M144 0a80 80 0 1 1 0 160A80 80 0 1 1 144 0zM512 0a80 80 0 1 1 0 160A80 80 0 1 1 512 0zM0 298.7C0 239.8 47.8 192 106.7 192l42.7 0c15.9 0 31 3.5 44.6 9.7c-1.3 7.2-1.9 14.7-1.9 22.3c0 38.2 16.8 72.5 43.3 96c-.2 0-.4 0-.7 0L21.3 320C9.6 320 0 310.4 0 298.7zM405.3 320c-.2 0-.4 0-.7 0c26.6-23.5 43.3-57.8 43.3-96c0-7.6-.7-15-1.9-22.3c13.6-6.3 28.7-9.7 44.6-9.7l42.7 0C592.2 192 640 239.8 640 298.7c0 11.8-9.6 21.3-21.3 21.3l-213.3 0zM224 224a96 96 0 1 1 192 0 96 96 0 1 1 -192 0zM128 485.3C128 411.7 187.7 352 261.3 352l117.3 0C452.3 352 512 411.7 512 485.3c0 14.7-11.9 26.7-26.7 26.7l-330.7 0c-14.7 0-26.7-11.9-26.7-26.7z"></path>
  </symbol>
  <symbol viewBox="0 0 384 512" id="xmark">
    <path d="M342.6 150.6c12.5-12.5 12.5-32.8 0-45.3s-32.8-12.5-45.3 0L192 210.7 86.6 105.4c-12.5-12.5-32.8-12.5-45.3 0s-12.5 32.8 0 45.3L146.7 256 41.4 361.4c-12.5 12.5-12.5 32.8 0 45.3s32.8 12.5 45.3 0L192 301.3 297.4 406.6c12.5 12.5 32.8 12.5 45.3 0s12.5-32.8 0-45.3L237.3 256 342.6 150.6z"></path>
  </symbol>
  <symbol viewBox="0 0 512 512" id="xmark-circle">
    <path d="M256 512A256 256 0 1 0 256 0a256 256 0 1 0 0 512zM175 175c9.4-9.4 24.6-9.4 33.9 0l47 47 47-47c9.4-9.4 24.6-9.4 33.9 0s9.4 24.6 0 33.9l-47 47 47 47c9.4 9.4 9.4 24.6 0 33.9s-24.6 9.4-33.9 0l-47-47-47 47c-9.4 9.4-24.6 9.4-33.9 0s-9.4-24.6 0-33.9l47-47-47-47c-9.4-9.4-9.4-24.6 0-33.9z"></path>
  </symbol>
</svg>